<?xml version="1.0" encoding="utf-8"?>
<!-- Generator: $$$/GeneralStr/196=Adobe Illustrator 27.6.0, SVG Export Plug-In . SVG Version: 6.00 Build 0)  -->
<svg version="1.1" id="Calque_1" xmlns="http://www.w3.org/2000/svg" xmlns:xlink="http://www.w3.org/1999/xlink" x="0px" y="0px"
	 viewBox="0 0 904 341.6" style="enable-background:new 0 0 904 341.6;" xml:space="preserve">
<style type="text/css">
	.st0{fill:#FFFFFF;}
</style>
<g>
	<path class="st0" d="M42.9,255.7V41.1C30.3,30.3,17.2,23.5,0,18.1V6.3h74.6l192,236.8V80.4c0-38.9-14.5-54.7-51.1-61.9V6.3h113.9
		v12.2c-23.9,7.2-34.8,23-34.8,61.9v242.2h-20.8L70.9,72.3v183.4c0,33,15.4,45.6,51.1,54.7v12.2H7.2v-12.2
		C33,304.5,42.9,288.7,42.9,255.7z"/>
	<path class="st0" d="M434.7,258V70.9c0-38.9-14-47.4-39.8-52.4V6.3h123.4v12.2c-23.9,5-39.3,13.6-39.3,52.4V258
		c0,38.9,15.4,47.4,39.3,52.4v12.2H394.9v-12.2C420.7,305.4,434.7,296.9,434.7,258z"/>
	<path class="st0" d="M581.5,164c0-89.9,71.4-164,164.9-164c38,0,76.8,9.5,104.4,22.6l9.9,77.7l-10.4,3.6
		C819.2,55.6,783,22.6,735.6,22.6c-59.2,0-104.8,58.3-104.8,126.5c0,91.3,68.2,154.1,139.6,154.1c17.2,0,34.8-5,53.8-13.6v-66
		c0-38.4-24.9-49.7-68.2-52.4V159h141.9v12.2c-23.9,5-29.4,13.6-29.4,52v102.1l-10.8,3.6l-18.1-17.6c-13.1,5-47.9,17.6-88.1,17.6
		C652.9,328.9,581.5,253.9,581.5,164z"/>
</g>
</svg>
